<svg xmlns="http://www.w3.org/2000/svg" width="172" height="39" fill="none" viewBox="0 0 172 39"><path fill="#040F00" d="M91.36 9.525c-1.335 0-2.46-.444-3.351-1.317a4.36 4.36 0 0 1-1.354-3.212c0-1.274.456-2.353 1.354-3.208C88.895.915 90.02.472 91.357.472c1.32 0 2.447.443 3.352 1.316.897.883 1.354 1.962 1.354 3.208-.015 1.278-.471 2.357-1.354 3.209-.887.88-2.013 1.32-3.348 1.32m-39.74 0c-1.306 0-2.439-.437-3.366-1.3-.92-.858-1.387-1.944-1.387-3.225s.467-2.367 1.387-3.226C49.163.912 50.296.475 51.621.475a4.9 4.9 0 0 1 1.88.37c.592.241 1.074.57 1.43.97l.09.102-.998.929-.103-.115c-.563-.636-1.317-.947-2.314-.947-.89 0-1.667.3-2.307.894-.644.597-.971 1.38-.971 2.325 0 .947.327 1.729.971 2.326.64.593 1.416.893 2.307.893.95 0 1.747-.3 2.37-.893.367-.35.595-.838.676-1.456h-3.197V4.567h4.57l.018.119c.033.22.066.447.066.656 0 1.205-.382 2.179-1.14 2.898-.861.852-1.987 1.285-3.348 1.285m52.839-.185h-1.409l-4.316-6.554.037 1.18v5.37h-1.41V.66h1.608l.044.067 4.059 6.172-.037-1.176V.66h1.424zm-23.687 0h-1.428V1.966h-2.476V.66h6.376v1.306h-2.476V9.34zm-5.067 0h-1.424V.66h1.424zm-8.002 0H66.28V1.966h-2.476V.66h6.376v1.306h-2.476zM62.9 9.326h-5.46V.66h5.46v1.306h-4.03v2.381h3.639V5.64h-3.64v2.38h4.033zM89.054 7.31c.636.604 1.409.908 2.307.908.923 0 1.677-.297 2.307-.908.625-.593.941-1.372.941-2.311 0-.94-.316-1.721-.938-2.311-.636-.604-1.413-.908-2.307-.908-.923 0-1.678.297-2.303.908-.625.593-.942 1.372-.942 2.31 0 .94.313 1.722.935 2.312"/><path fill="#040F00" fill-rule="evenodd" d="M86.523 21.458c-3.477 0-6.296 2.503-6.296 5.956 0 3.421 2.837 5.956 6.295 5.956 3.477 0 6.296-2.52 6.296-5.956 0-3.453-2.819-5.956-6.296-5.956m0 9.552c-1.903 0-3.54-1.494-3.54-3.61 0-2.147 1.64-3.61 3.54-3.61 1.902 0 3.539 1.463 3.539 3.61.004 2.13-1.637 3.61-3.54 3.61m-13.735-9.552c-3.477 0-6.296 2.503-6.296 5.956 0 3.421 2.837 5.956 6.296 5.956 3.477 0 6.295-2.52 6.295-5.956 0-3.453-2.822-5.956-6.295-5.956m0 9.552c-1.903 0-3.54-1.494-3.54-3.61 0-2.147 1.641-3.61 3.54-3.61 1.902 0 3.54 1.463 3.54 3.61 0 2.13-1.638 3.61-3.54 3.61m-16.344-7.733v2.52h6.376c-.195 1.415-.688 2.458-1.442 3.174-.934.887-2.377 1.85-4.92 1.85-3.918 0-6.983-3.002-6.983-6.72s3.065-6.72 6.984-6.72c2.115 0 3.657.792 4.801 1.804l1.884-1.787c-1.59-1.446-3.705-2.553-6.67-2.553-5.376 0-9.887 4.155-9.887 9.242 0 5.1 4.507 9.241 9.886 9.241 2.904 0 5.082-.9 6.804-2.597 1.755-1.666 2.31-4.015 2.31-5.911 0-.59-.048-1.12-.147-1.571h-9c.004-.004.004.028.004.028m66.85 1.962c-.527-1.337-2.116-3.795-5.376-3.795-3.23 0-5.916 2.412-5.916 5.956 0 3.345 2.656 5.956 6.229 5.956 2.87 0 4.54-1.665 5.228-2.643l-2.13-1.354c-.707.995-1.689 1.647-3.083 1.647-1.41 0-2.396-.607-3.051-1.805l8.393-3.299c0 .004-.294-.663-.294-.663m-8.559 1.99c-.066-2.3 1.884-3.47 3.279-3.47 1.1 0 2.016.513 2.329 1.26zM107.918 33h2.755V15.502h-2.755zm-4.526-10.219h-.099c-.622-.702-1.803-1.337-3.312-1.337-3.13 0-6.015 2.615-6.015 5.974 0 3.344 2.87 5.928 6.015 5.928 1.491 0 2.69-.64 3.312-1.355h.099v.855c0 2.273-1.28 3.499-3.344 3.499-1.69 0-2.738-1.152-3.165-2.116l-2.395.95c.688 1.57 2.524 3.515 5.556 3.515 3.23 0 5.968-1.805 5.968-6.207V21.8h-2.605v.981zm-3.164 8.229c-1.902 0-3.492-1.508-3.492-3.593 0-2.101 1.59-3.623 3.492-3.623 1.884 0 3.344 1.54 3.344 3.624.019 2.084-1.457 3.592-3.344 3.592m35.969-15.508h-6.59V33h2.756v-6.626h3.838c3.05 0 6.048-2.099 6.048-5.43s-2.987-5.442-6.052-5.442m.081 8.428h-3.919v-6.005h3.919c2.064 0 3.23 1.616 3.23 3.002 0 1.372-1.181 3.003-3.23 3.003m17.017-2.504c-2.002 0-4.066.842-4.92 2.675l2.444.963c.526-.963 1.49-1.291 2.509-1.291 1.427 0 2.87.81 2.903 2.255v.185c-.493-.265-1.575-.67-2.87-.67-2.638 0-5.313 1.368-5.313 3.934 0 2.35 2.163 3.858 4.573 3.858 1.851 0 2.87-.792 3.507-1.71h.099v1.354h2.657v-6.703c0-3.121-2.443-4.85-5.589-4.85m-.346 9.584c-.902 0-2.164-.419-2.164-1.494 0-1.355 1.575-1.868 2.918-1.868 1.214 0 1.788.248 2.509.59-.198 1.571-1.596 2.758-3.263 2.772m15.626-9.21-3.164 7.59h-.1l-3.278-7.59h-2.965l4.919 10.61-2.804 5.897h2.87l7.568-16.507zM143.769 33h2.756V15.502h-2.756z" clip-rule="evenodd"/><g clip-path="url(#a)"><mask id="b" width="35" height="36" x="0" y="1" maskUnits="userSpaceOnUse" style="mask-type:luminance"><path fill="#fff" d="M35 1H0v36h35z"/></mask><g fill-rule="evenodd" clip-rule="evenodd" mask="url(#b)"><path fill="url(#c)" d="M1.395 1.547C.968 1.984.72 2.65.72 3.523V34.48c0 .873.247 1.54.688 1.959l.114.094 18.28-17.344V18.8L1.508 1.453z"/><path fill="url(#d)" d="m25.884 24.988-6.097-5.785v-.405l6.097-5.785.132.076 7.212 3.89c2.064 1.103 2.064 2.925 0 4.042l-7.212 3.89z"/><path fill="url(#e)" d="M26.016 24.91 19.786 19 1.395 36.453c.673.684 1.803.761 3.065.094z"/><path fill="url(#f)" d="M26.016 13.09 4.459 1.47C3.197.786 2.064.88 1.394 1.565L19.787 19z"/><path fill="#fff" d="M25.884 24.785 4.474 36.327c-1.196.653-2.263.608-2.951.014l-.114.108.114.095c.688.59 1.755.639 2.95-.014l21.558-11.62z" opacity="0.2"/><path fill="#fff" d="m33.228 20.819-7.363 3.966.133.126 7.211-3.89c1.034-.558 1.542-1.291 1.542-2.021-.063.67-.589 1.306-1.523 1.819" opacity="0.12"/><path fill="#040F00" d="M4.46 1.673 33.227 17.18c.934.5 1.46 1.152 1.541 1.82 0-.73-.507-1.464-1.541-2.022L4.459 1.47C2.395.35.721 1.285.721 3.523v.203c0-2.242 1.674-3.16 3.738-2.053" opacity="0.25"/></g></g><defs><linearGradient id="c" x1="18.1625" x2="-10.9038" y1="3.18921" y2="11.3512" gradientUnits="userSpaceOnUse"><stop stop-color="#00A0FF"/><stop offset="0.00657" stop-color="#00A1FF"/><stop offset="0.2601" stop-color="#00BEFF"/><stop offset="0.5122" stop-color="#00D2FF"/><stop offset="0.7604" stop-color="#00DFFF"/><stop offset="1" stop-color="#00E3FF"/></linearGradient><linearGradient id="d" x1="35.9195" x2="0.219155" y1="19" y2="19" gradientUnits="userSpaceOnUse"><stop stop-color="#FFE000"/><stop offset="0.4087" stop-color="#FFBD00"/><stop offset="0.7754" stop-color="orange"/><stop offset="1" stop-color="#FF9C00"/></linearGradient><linearGradient id="e" x1="22.6289" x2="0.899971" y1="22.2163" y2="60.7576" gradientUnits="userSpaceOnUse"><stop stop-color="#FF3A44"/><stop offset="1" stop-color="#C31162"/></linearGradient><linearGradient id="f" x1="-3.23749" x2="6.45624" y1="-8.74955" y2="8.46287" gradientUnits="userSpaceOnUse"><stop stop-color="#32A071"/><stop offset="0.0685" stop-color="#2DA771"/><stop offset="0.4762" stop-color="#15CF74"/><stop offset="0.8009" stop-color="#06E775"/><stop offset="1" stop-color="#00F076"/></linearGradient><clipPath id="a"><path fill="#fff" d="M0 1h35v36H0z"/></clipPath></defs></svg>