<svg xmlns="http://www.w3.org/2000/svg" aria-hidden="true" style="position:absolute;width:0;height:0;overflow:hidden">
  <defs>
    <symbol id="icon-arrow-right" viewBox="0 0 32 32">
      <path d="M16 26.88C9.984 26.88 5.12 22.016 5.12 16S9.984 5.12 16 5.12c6.016 0 10.88 4.864 10.88 10.88S22.016 26.88 16 26.88zM16 6.4c-5.312 0-9.6 4.288-9.6 9.6s4.288 9.6 9.6 9.6c5.312 0 9.6-4.288 9.6-9.6S21.312 6.4 16 6.4z"/>
      <path d="m15.808 22.208-.896-.896L20.224 16l-5.312-5.312.896-.896L22.016 16l-6.208 6.208z"/>
      <path d="M10.24 15.36h10.88v1.28H10.24v-1.28z"/>
    </symbol>
    <symbol id="icon-arrow-left" viewBox="0 0 32 32">
      <path d="M16 26.88C9.984 26.88 5.12 22.016 5.12 16S9.984 5.12 16 5.12c6.016 0 10.88 4.864 10.88 10.88S22.016 26.88 16 26.88zM16 6.4c-5.312 0-9.6 4.288-9.6 9.6s4.288 9.6 9.6 9.6c5.312 0 9.6-4.288 9.6-9.6S21.312 6.4 16 6.4z"/>
      <path d="M16.192 22.208 9.984 16l6.208-6.208.896.896L11.776 16l5.312 5.312-.896.896z"/>
      <path d="M10.88 15.36h10.88v1.28H10.88v-1.28z"/>
    </symbol>
    <symbol id="icon-menu-close" viewBox="0 0 32 32">
      <path d="M3.225 3.225a1.905 1.905 0 0 1 2.694 0l10.082 10.082L26.083 3.225a1.905 1.905 0 1 1 2.694 2.694L18.695 16.001l10.082 10.082a1.905 1.905 0 1 1-2.694 2.694L16.001 18.695 5.919 28.777a1.905 1.905 0 1 1-2.694-2.694l10.082-10.082L3.225 5.919a1.905 1.905 0 0 1 0-2.694z"/>
    </symbol>
    <symbol id="icon-menu-open" viewBox="0 0 32 32">
      <path d="M4 24h24v-2.667H4V24zm0-6.667h24v-2.667H4v2.667zM4 8v2.667h24V8H4z"/>
    </symbol>
    <symbol id="icon-arrow-back" viewBox="0 0 32 32">
      <path d="m14.848 24.64-6.912-6.72H31.36v-3.84H7.936l6.912-6.72-2.88-2.688L.64 16l11.328 11.328 2.88-2.688z"/>
    </symbol>
  </defs>
</svg>
