<svg xmlns="http://www.w3.org/2000/svg" aria-hidden="true" style="position:absolute;width:0;height:0;overflow:hidden">
  <defs>
    <symbol id="icon-google-play" viewBox="0 0 161 32">
      <path d="M51.868 9.546c-4.45 0-8.058 3.204-8.058 7.624 0 4.379 3.631 7.624 8.058 7.624 4.451 0 8.058-3.227 8.058-7.624 0-4.42-3.607-7.624-8.058-7.624zm0 12.227c-2.435 0-4.531-1.913-4.531-4.621 0-2.748 2.1-4.621 4.531-4.621 2.435 0 4.531 1.872 4.531 4.621.005 2.726-2.096 4.621-4.531 4.621zM34.288 9.546c-4.45 0-8.058 3.204-8.058 7.624 0 4.379 3.631 7.624 8.058 7.624 4.451 0 8.058-3.227 8.058-7.624 0-4.42-3.612-7.624-8.058-7.624zm0 12.227c-2.435 0-4.531-1.913-4.531-4.621 0-2.748 2.1-4.621 4.531-4.621 2.435 0 4.531 1.872 4.531 4.621 0 2.726-2.096 4.621-4.531 4.621zm-20.92-9.899V15.1h8.162c-.25 1.81-.881 3.146-1.846 4.062-1.196 1.135-3.042 2.369-6.297 2.369-5.016 0-8.939-3.843-8.939-8.602s3.923-8.603 8.939-8.603c2.708 0 4.681 1.014 6.146 2.31l2.411-2.288c-2.034-1.85-4.742-3.267-8.538-3.267C6.525 1.081.752 6.399.752 12.91c0 6.529 5.769 11.829 12.654 11.829 3.716 0 6.504-1.153 8.708-3.325 2.246-2.132 2.958-5.139 2.958-7.566 0-.755-.061-1.435-.188-2.011h-11.52c.005-.004.005.036.005.036zm85.567 2.512c-.673-1.712-2.708-4.858-6.881-4.858-4.135 0-7.573 3.088-7.573 7.624 0 4.281 3.4 7.624 7.973 7.624 3.673 0 5.811-2.132 6.692-3.383l-2.727-1.734c-.904 1.274-2.162 2.109-3.947 2.109-1.804 0-3.066-.778-3.904-2.31l10.743-4.223c0 .004-.377-.849-.377-.849zm-10.954 2.547c-.085-2.945 2.411-4.442 4.196-4.442 1.408 0 2.581.657 2.981 1.613l-7.177 2.829zm-8.727 7.387h3.527V1.922h-3.527V24.32zm-5.792-13.08h-.127c-.796-.898-2.308-1.712-4.238-1.712-4.008 0-7.7 3.347-7.7 7.646 0 4.281 3.673 7.588 7.7 7.588 1.907 0 3.443-.818 4.238-1.734h.127v1.095c0 2.909-1.639 4.478-4.281 4.478-2.162 0-3.504-1.475-4.05-2.708l-3.066 1.216c.881 2.011 3.231 4.5 7.111 4.5 4.135 0 7.639-2.31 7.639-7.946V9.984h-3.334v1.256h-.019zm-4.051 10.533c-2.435 0-4.469-1.93-4.469-4.598 0-2.69 2.035-4.639 4.469-4.639 2.411 0 4.281 1.971 4.281 4.639.024 2.668-1.865 4.598-4.281 4.598zm46.041-19.851h-8.435V24.32h3.527v-8.482h4.912c3.904 0 7.743-2.686 7.743-6.949s-3.824-6.967-7.747-6.967zm.103 10.788h-5.016V5.024h5.016c2.642 0 4.135 2.069 4.135 3.843 0 1.756-1.512 3.843-4.135 3.843zm21.781-3.204c-2.561 0-5.203 1.077-6.296 3.423l3.127 1.233c.673-1.233 1.907-1.654 3.213-1.654 1.827 0 3.672 1.037 3.716 2.887v.237c-.631-.34-2.016-.858-3.674-.858-3.377 0-6.801 1.752-6.801 5.036 0 3.008 2.769 4.938 5.853 4.938 2.369 0 3.674-1.014 4.489-2.19h.127v1.734h3.4v-8.58c0-3.995-3.127-6.207-7.154-6.207zm-.441 12.267c-1.155 0-2.77-.536-2.77-1.913 0-1.734 2.016-2.391 3.735-2.391 1.554 0 2.289.317 3.212.755-.255 2.011-2.044 3.53-4.177 3.548zm20.001-11.789-4.051 9.715h-.127l-4.196-9.715h-3.796l6.298 13.581-3.589 7.548h3.674l9.687-21.129h-3.899zM125.144 24.32h3.528V1.922h-3.528V24.32z"/>
    </symbol>
    <symbol id="icon-get-it-on" viewBox="0 0 189 32">
      <path d="M145.155 30.479c-4.274 0-7.876-1.419-10.726-4.212-2.826-2.715-4.404-6.457-4.333-10.278 0-4.078 1.46-7.53 4.333-10.267 2.837-2.793 6.44-4.212 10.714-4.212 4.227 0 7.83 1.419 10.726 4.212 2.873 2.827 4.333 6.279 4.333 10.267-.047 4.089-1.507 7.541-4.333 10.267-2.837 2.815-6.44 4.223-10.714 4.223zm-127.168 0c-4.18 0-7.806-1.396-10.773-4.156C4.271 23.575 2.775 20.1 2.775 16S4.27 8.425 7.214 5.677c2.908-2.76 6.534-4.156 10.773-4.156 2.072 0 4.085.391 6.016 1.184 1.896.771 3.438 1.821 4.58 3.106l.283.324-3.191 2.972-.33-.369C23.544 6.705 21.13 5.71 17.939 5.71c-2.849 0-5.334.961-7.382 2.86-2.06 1.91-3.108 4.413-3.108 7.441s1.048 5.53 3.108 7.441c2.049 1.899 4.533 2.86 7.382 2.86 3.038 0 5.593-.961 7.582-2.86 1.177-1.117 1.907-2.681 2.166-4.659H17.456v-4.178h14.623l.059.38c.106.704.212 1.43.212 2.1 0 3.854-1.225 6.971-3.65 9.273-2.755 2.726-6.358 4.111-10.714 4.111zm169.082-.592h-4.509l-13.811-20.97.118 3.776v17.183h-4.509V2.113h5.145l.141.212 12.986 19.752-.118-3.765v-16.2h4.556v27.774zm-75.799 0h-4.568V6.292h-7.924V2.114h20.404v4.178h-7.924v23.595h.012zm-16.212 0h-4.556V2.113h4.556v27.774zm-25.608 0h-4.556V6.292H56.97V2.114h20.404v4.178H69.45v23.595zm-15.365-.045H36.613V2.113h17.472v4.178H41.181v7.619h11.644v4.134H41.181v7.619h12.904v4.178zm83.687-6.446c2.037 1.933 4.509 2.905 7.382 2.905 2.955 0 5.369-.95 7.382-2.905 2.002-1.899 3.014-4.391 3.014-7.396s-1.012-5.508-3.002-7.396c-2.037-1.933-4.521-2.905-7.382-2.905-2.955 0-5.369.95-7.37 2.905-2.002 1.899-3.014 4.391-3.014 7.396s1.001 5.508 2.99 7.396z"/>
    </symbol>
    <symbol id="icon-menu-close" viewBox="0 0 32 32">
      <path d="M3.225 3.225a1.905 1.905 0 0 1 2.694 0l10.082 10.082L26.083 3.225a1.905 1.905 0 1 1 2.694 2.694L18.695 16.001l10.082 10.082a1.905 1.905 0 1 1-2.694 2.694L16.001 18.695 5.919 28.777a1.905 1.905 0 1 1-2.694-2.694l10.082-10.082L3.225 5.919a1.905 1.905 0 0 1 0-2.694z"/>
    </symbol>
    <symbol id="icon-menu-open" viewBox="0 0 32 32">
      <path d="M4 24h24v-2.667H4V24zm0-6.667h24v-2.667H4v2.667zM4 8v2.667h24V8H4z"/>
    </symbol>
    <symbol id="icon-pages-arrow-left" viewBox="0 0 32 32">
      <path d="m14.848 24.64-6.912-6.72H31.36v-3.84H7.936l6.912-6.72-2.88-2.688L.64 16l11.328 11.328 2.88-2.688z"/>
    </symbol>
    <symbol id="icon-arrow-left" viewBox="0 0 32 32">
      <path d="M16 26.88c-6.016 0-10.88-4.864-10.88-10.88s4.864-10.88 10.88-10.88c6.016 0 10.88 4.864 10.88 10.88s-4.864 10.88-10.88 10.88zM16 6.4c-5.312 0-9.6 4.288-9.6 9.6s4.288 9.6 9.6 9.6c5.312 0 9.6-4.288 9.6-9.6s-4.288-9.6-9.6-9.6z"></path>
      <path d="M16.192 22.208l-6.208-6.208 6.208-6.208 0.896 0.896-5.312 5.312 5.312 5.312-0.896 0.896z"></path>
      <path d="M10.88 15.36h10.88v1.28h-10.88v-1.28z"></path>
    </symbol>
    <symbol id="icon-arrow-right" viewBox="0 0 32 32">
      <path d="M16 26.88c-6.016 0-10.88-4.864-10.88-10.88s4.864-10.88 10.88-10.88c6.016 0 10.88 4.864 10.88 10.88s-4.864 10.88-10.88 10.88zM16 6.4c-5.312 0-9.6 4.288-9.6 9.6s4.288 9.6 9.6 9.6c5.312 0 9.6-4.288 9.6-9.6s-4.288-9.6-9.6-9.6z"></path>
      <path d="M15.808 22.208l-0.896-0.896 5.312-5.312-5.312-5.312 0.896-0.896 6.208 6.208-6.208 6.208z"></path>
      <path d="M10.24 15.36h10.88v1.28h-10.88v-1.28z"></path>
</symbol>
  </defs>
</svg>
