<svg width="172" height="39" viewBox="0 0 172 39" fill="none" xmlns="http://www.w3.org/2000/svg">
<path d="M91.3606 9.52461C90.025 9.52461 88.8991 9.08122 88.0087 8.2084C87.1257 7.36002 86.6327 6.19044 86.6548 4.99643C86.6548 3.72211 87.111 2.64331 88.0087 1.78795C88.8955 0.915133 90.0213 0.471741 91.3569 0.471741C92.6778 0.471741 93.8036 0.915133 94.7087 1.78795C95.6065 2.67124 96.0627 3.75004 96.0627 4.99643C96.048 6.27423 95.5918 7.35304 94.7087 8.20491C93.822 9.08471 92.6962 9.52461 91.3606 9.52461ZM51.6206 9.52461C50.3144 9.52461 49.1812 9.0882 48.254 8.22586C47.3342 7.367 46.8669 6.28122 46.8669 4.99992C46.8669 3.71862 47.3342 2.63284 48.254 1.77399C49.1628 0.911642 50.296 0.475232 51.6206 0.475232C52.2681 0.475232 52.8973 0.597427 53.5007 0.845307C54.0931 1.0862 54.5751 1.41438 54.9319 1.81588L55.0202 1.91713L54.0232 2.84581L53.9201 2.73059C53.3572 2.09518 52.603 1.78446 51.6059 1.78446C50.7155 1.78446 49.9391 2.08471 49.299 2.67822C48.6551 3.27523 48.3276 4.05728 48.3276 5.00341C48.3276 5.94955 48.6551 6.73159 49.299 7.3286C49.9391 7.92212 50.7155 8.22236 51.6059 8.22236C52.5551 8.22236 53.3535 7.92212 53.9753 7.3286C54.3433 6.97947 54.5714 6.49069 54.6523 5.87274H51.455V4.567H56.0247L56.0431 4.68571C56.0762 4.90566 56.1093 5.13259 56.1093 5.34206C56.1093 6.54655 55.7267 7.52062 54.9687 8.23982C54.1078 9.09169 52.9819 9.52461 51.6206 9.52461ZM104.459 9.33957H103.05L98.7339 2.78645L98.7707 3.9665V9.33608H97.3615V0.66027H98.9693L99.0135 0.726604L103.072 6.89917L103.035 5.72261V0.66027H104.459V9.33957V9.33957ZM80.7716 9.33957H79.344V1.96601H76.8679V0.66027H83.2441V1.96601H80.7679V9.33957H80.7716ZM75.7052 9.33957H74.2813V0.66027H75.7052V9.33957ZM67.7028 9.33957H66.2789V1.96601H63.8027V0.66027H70.1789V1.96601H67.7028V9.33957ZM62.9013 9.32561H57.4412V0.66027H62.9013V1.96601H58.8688V4.34705H62.5076V5.63882H58.8688V8.01987H62.9013V9.32561ZM89.0537 7.31114C89.6902 7.91513 90.4628 8.21887 91.3606 8.21887C92.2841 8.21887 93.0383 7.92212 93.6675 7.31114C94.293 6.71763 94.6094 5.93907 94.6094 4.99992C94.6094 4.06077 94.293 3.27872 93.6712 2.6887C93.0347 2.08471 92.2583 1.78097 91.3643 1.78097C90.4408 1.78097 89.6865 2.07773 89.061 2.6887C88.4356 3.28221 88.1191 4.06077 88.1191 4.99992C88.1191 5.93907 88.4319 6.72112 89.0537 7.31114Z" fill="#040F00"/>
<path fill-rule="evenodd" clip-rule="evenodd" d="M86.5225 21.4579C83.0455 21.4579 80.2271 23.9611 80.2271 27.414C80.2271 30.8354 83.0639 33.3701 86.5225 33.3701C89.9994 33.3701 92.8178 30.8494 92.8178 27.414C92.8178 23.9611 89.9994 21.4579 86.5225 21.4579ZM86.5225 31.01C84.6203 31.01 82.983 29.5157 82.983 27.4C82.983 25.2529 84.6239 23.79 86.5225 23.79C88.4247 23.79 90.062 25.2529 90.062 27.4C90.0656 29.5297 88.4247 31.01 86.5225 31.01ZM72.7876 21.4579C69.3106 21.4579 66.4923 23.9611 66.4923 27.414C66.4923 30.8354 69.329 33.3701 72.7876 33.3701C76.2645 33.3701 79.0829 30.8494 79.0829 27.414C79.0829 23.9611 76.2608 21.4579 72.7876 21.4579ZM72.7876 31.01C70.8854 31.01 69.2481 29.5157 69.2481 27.4C69.2481 25.2529 70.889 23.79 72.7876 23.79C74.6898 23.79 76.3271 25.2529 76.3271 27.4C76.3271 29.5297 74.6898 31.01 72.7876 31.01ZM56.444 23.2768V25.7975H62.8203C62.6253 27.2115 62.1323 28.2554 61.378 28.9711C60.4435 29.8579 59.0012 30.8215 56.4588 30.8215C52.5403 30.8215 49.4754 27.819 49.4754 24.1008C49.4754 20.3826 52.5403 17.3801 56.4588 17.3801C58.5744 17.3801 60.116 18.1726 61.2603 19.185L63.1441 17.3975C61.5546 15.9521 59.439 14.8454 56.4735 14.8454C51.098 14.8454 46.5872 19 46.5872 24.0868C46.5872 29.1875 51.0943 33.3282 56.4735 33.3282C59.3765 33.3282 61.5546 32.4274 63.2765 30.7307C65.0316 29.0653 65.5872 26.7157 65.5872 24.82C65.5872 24.2299 65.5393 23.6993 65.44 23.2489H56.4404C56.444 23.2454 56.444 23.2768 56.444 23.2768ZM123.294 25.2389C122.767 23.9018 121.178 21.4439 117.918 21.4439C114.688 21.4439 112.002 23.8564 112.002 27.4C112.002 30.7446 114.658 33.3561 118.231 33.3561C121.101 33.3561 122.771 31.6908 123.459 30.7132L121.329 29.3586C120.622 30.3536 119.64 31.0065 118.246 31.0065C116.836 31.0065 115.85 30.399 115.195 29.2015L123.588 25.9023C123.588 25.9057 123.294 25.2389 123.294 25.2389ZM114.735 27.2289C114.669 24.9282 116.619 23.7586 118.014 23.7586C119.114 23.7586 120.03 24.2718 120.343 25.019L114.735 27.2289ZM107.918 33H110.673V15.5018H107.918V33ZM103.392 22.7811H103.293C102.671 22.0793 101.49 21.4439 99.9814 21.4439C96.8503 21.4439 93.9657 24.0589 93.9657 27.4175C93.9657 30.7621 96.8356 33.3456 99.9814 33.3456C101.472 33.3456 102.671 32.7067 103.293 31.991H103.392V32.8464C103.392 35.1192 102.112 36.3447 100.048 36.3447C98.3588 36.3447 97.3102 35.1925 96.8834 34.2289L94.4882 35.1786C95.1762 36.7496 97.0122 38.6943 100.044 38.6943C103.274 38.6943 106.012 36.8893 106.012 32.4868V21.8H103.407V22.7811C103.411 22.7811 103.392 22.7811 103.392 22.7811ZM100.228 31.01C98.3257 31.01 96.7362 29.5018 96.7362 27.4175C96.7362 25.3157 98.3257 23.7935 100.228 23.7935C102.112 23.7935 103.572 25.3332 103.572 27.4175C103.591 29.5018 102.115 31.01 100.228 31.01ZM136.197 15.5018H129.607V33H132.363V26.3736H136.201C139.251 26.3736 142.249 24.2753 142.249 20.9447C142.249 17.614 139.262 15.5018 136.197 15.5018ZM136.278 23.9297H132.359V17.9247H136.278C138.342 17.9247 139.508 19.5412 139.508 20.9272C139.508 22.2993 138.327 23.9297 136.278 23.9297ZM153.295 21.4264C151.293 21.4264 149.229 22.2678 148.375 24.1008L150.819 25.0644C151.345 24.1008 152.309 23.7726 153.328 23.7726C154.755 23.7726 156.198 24.5826 156.231 26.0279V26.213C155.738 25.9476 154.656 25.5427 153.361 25.5427C150.723 25.5427 148.048 26.9112 148.048 29.4773C148.048 31.8269 150.211 33.3352 152.621 33.3352C154.472 33.3352 155.491 32.5427 156.128 31.6244H156.227V32.9791H158.884V26.2758C158.884 23.1546 156.441 21.4264 153.295 21.4264ZM152.949 31.01C152.047 31.01 150.785 30.591 150.785 29.5157C150.785 28.1611 152.36 27.6479 153.703 27.6479C154.917 27.6479 155.491 27.8958 156.212 28.2379C156.014 29.809 154.616 30.996 152.949 31.01ZM168.575 21.8L165.411 29.39H165.311L162.033 21.8H159.068L163.987 32.41L161.183 38.3067H164.053L171.621 21.8H168.575ZM143.769 33H146.525V15.5018H143.769V33Z" fill="#040F00"/>
<g clip-path="url(#clip0_2023_121)">
<mask id="mask0_2023_121" style="mask-type:luminance" maskUnits="userSpaceOnUse" x="0" y="1" width="35" height="36">
<path d="M35 1H0V37H35V1Z" fill="white"/>
</mask>
<g mask="url(#mask0_2023_121)">
<path fill-rule="evenodd" clip-rule="evenodd" d="M1.3945 1.54715C0.967705 1.98355 0.721191 2.65039 0.721191 3.5232V34.4804C0.721191 35.3532 0.967705 36.02 1.40922 36.439L1.52328 36.5332L19.8021 19.1886V18.8011L1.50856 1.45288L1.3945 1.54715Z" fill="url(#paint0_linear_2023_121)"/>
<path fill-rule="evenodd" clip-rule="evenodd" d="M25.8838 24.9875L19.7871 19.2025V18.7975L25.8838 13.0125L26.0162 13.0893L33.2277 16.9785C35.2918 18.0818 35.2918 19.9042 33.2277 21.0214L26.0162 24.9107L25.8838 24.9875Z" fill="url(#paint1_linear_2023_121)"/>
<path fill-rule="evenodd" clip-rule="evenodd" d="M26.016 24.9107L19.7869 19L1.39404 36.4529C2.06736 37.1372 3.19691 37.214 4.45891 36.5471L26.016 24.9107Z" fill="url(#paint2_linear_2023_121)"/>
<path fill-rule="evenodd" clip-rule="evenodd" d="M26.016 13.0894L4.45891 1.47046C3.19691 0.786176 2.06368 0.88044 1.39404 1.56473L19.7869 19.0001L26.016 13.0894Z" fill="url(#paint3_linear_2023_121)"/>
<path opacity="0.2" fill-rule="evenodd" clip-rule="evenodd" d="M25.8836 24.7852L4.47357 36.3273C3.27779 36.9802 2.21079 36.9348 1.52275 36.3413L1.40869 36.4495L1.52275 36.5438C2.21079 37.1338 3.27779 37.1827 4.47357 36.5298L26.0308 24.9109L25.8836 24.7852Z" fill="white"/>
<path opacity="0.12" fill-rule="evenodd" clip-rule="evenodd" d="M33.2275 20.819L25.8652 24.785L25.9977 24.9107L33.2091 21.0214C34.243 20.4628 34.7508 19.7297 34.7508 19C34.6882 19.6703 34.1621 20.3057 33.2275 20.819Z" fill="white"/>
<path opacity="0.25" fill-rule="evenodd" clip-rule="evenodd" d="M4.45937 1.67295L33.2279 17.1812C34.1625 17.6804 34.6886 18.3333 34.7695 19.0001C34.7695 18.2704 34.2618 17.5373 33.2279 16.9787L4.45937 1.47046C2.39528 0.349761 0.721191 1.28542 0.721191 3.52333V3.72582C0.721191 1.48443 2.39528 0.566221 4.45937 1.67295Z" fill="#040F00"/>
</g>
</g>
<defs>
<linearGradient id="paint0_linear_2023_121" x1="18.1625" y1="3.18921" x2="-10.9038" y2="11.3512" gradientUnits="userSpaceOnUse">
<stop stop-color="#00A0FF"/>
<stop offset="0.00657" stop-color="#00A1FF"/>
<stop offset="0.2601" stop-color="#00BEFF"/>
<stop offset="0.5122" stop-color="#00D2FF"/>
<stop offset="0.7604" stop-color="#00DFFF"/>
<stop offset="1" stop-color="#00E3FF"/>
</linearGradient>
<linearGradient id="paint1_linear_2023_121" x1="35.9195" y1="19" x2="0.219155" y2="19" gradientUnits="userSpaceOnUse">
<stop stop-color="#FFE000"/>
<stop offset="0.4087" stop-color="#FFBD00"/>
<stop offset="0.7754" stop-color="#FFA500"/>
<stop offset="1" stop-color="#FF9C00"/>
</linearGradient>
<linearGradient id="paint2_linear_2023_121" x1="22.6289" y1="22.2163" x2="0.899971" y2="60.7576" gradientUnits="userSpaceOnUse">
<stop stop-color="#FF3A44"/>
<stop offset="1" stop-color="#C31162"/>
</linearGradient>
<linearGradient id="paint3_linear_2023_121" x1="-3.23749" y1="-8.74955" x2="6.45624" y2="8.46287" gradientUnits="userSpaceOnUse">
<stop stop-color="#32A071"/>
<stop offset="0.0685" stop-color="#2DA771"/>
<stop offset="0.4762" stop-color="#15CF74"/>
<stop offset="0.8009" stop-color="#06E775"/>
<stop offset="1" stop-color="#00F076"/>
</linearGradient>
<clipPath id="clip0_2023_121">
<rect width="35" height="36" fill="white" transform="translate(0 1)"/>
</clipPath>
</defs>
</svg>
